HIERARCHY
ROOT newVegas:Hips
{
	OFFSET 0.000000 96.479958 0.000000
	CHANNELS 6 Xposition Yposition Zposition Xrotation Yrotation Zrotation
	JOINT newVegas:Pelvis
	{
		OFFSET 0.000000 0.000000 0.000000
		CHANNELS 3 Xrotation Yrotation Zrotation
		JOINT newVegas:LeftUpLeg
		{
			OFFSET 18.735201 -5.666702 -4.541200
			CHANNELS 3 Xrotation Yrotation Zrotation
			JOINT newVegas:LeftLeg
			{
				OFFSET -0.021200 -31.938179 0.493100
				CHANNELS 3 Xrotation Yrotation Zrotation
				JOINT newVegas:LeftFoot
				{
					OFFSET 0.021200 -31.938179 -4.336299
					CHANNELS 3 Xrotation Yrotation Zrotation
					JOINT newVegas:LeftToeBase
					{
						OFFSET 0.943001 -26.722000 15.023500
						CHANNELS 3 Xrotation Yrotation Zrotation
						End Site
						{
							OFFSET 0.000000 30.670183 0.000000
						}
					}
				}
				JOINT newVegas:Left_PantLeg
				{
					OFFSET 0.663870 -9.044666 -1.108900
					CHANNELS 3 Xrotation Yrotation Zrotation
					End Site
					{
						OFFSET 1.415995 20.635357 0.000000
					}
				}
			}
		}
		JOINT newVegas:RightUpLeg
		{
			OFFSET -18.735201 -5.666702 -4.541200
			CHANNELS 3 Xrotation Yrotation Zrotation
			JOINT newVegas:RightLeg
			{
				OFFSET 0.018946 -31.938133 0.493100
				CHANNELS 3 Xrotation Yrotation Zrotation
				JOINT newVegas:RightFoot
				{
					OFFSET -0.018946 -31.938126 -4.336299
					CHANNELS 3 Xrotation Yrotation Zrotation
					JOINT newVegas:RightToeBase
					{
						OFFSET -0.943001 -26.722004 15.023500
						CHANNELS 3 Xrotation Yrotation Zrotation
						End Site
						{
							OFFSET 0.000000 30.670187 0.000000
						}
					}
				}
				JOINT newVegas:Right_PantLeg
				{
					OFFSET -0.661674 -9.044716 -1.108900
					CHANNELS 3 Xrotation Yrotation Zrotation
					End Site
					{
						OFFSET -1.415958 20.635269 0.000000
					}
				}
			}
		}
	}
	JOINT newVegas:Spine
	{
		OFFSET 0.000000 10.199997 -0.299500
		CHANNELS 3 Xrotation Yrotation Zrotation
		JOINT newVegas:Spine1
		{
			OFFSET 0.000000 11.900002 -1.516600
			CHANNELS 3 Xrotation Yrotation Zrotation
			JOINT newVegas:Spine2
			{
				OFFSET 0.000000 13.600006 -2.842500
				CHANNELS 3 Xrotation Yrotation Zrotation
				JOINT newVegas:Neck
				{
					OFFSET 0.000000 9.624100 -2.890100
					CHANNELS 3 Xrotation Yrotation Zrotation
					JOINT newVegas:Head
					{
						OFFSET 0.000000 14.068802 -1.351900
						CHANNELS 3 Xrotation Yrotation Zrotation
						JOINT newVegas:Hair_Back
						{
							OFFSET 0.000000 3.231903 -17.524799
							CHANNELS 3 Xrotation Yrotation Zrotation
							End Site
							{
								OFFSET 0.000000 19.849884 0.000000
							}
						}
						JOINT newVegas:Hair_Front
						{
							OFFSET 0.000000 31.260406 4.573800
							CHANNELS 3 Xrotation Yrotation Zrotation
							JOINT newVegas:Hair_Front1
							{
								OFFSET 0.000000 2.284103 11.993300
								CHANNELS 3 Xrotation Yrotation Zrotation
								JOINT newVegas:Hair_Front2
								{
									OFFSET 0.000000 2.284103 11.993300
									CHANNELS 3 Xrotation Yrotation Zrotation
									End Site
									{
										OFFSET 0.000000 12.208862 0.000000
									}
								}
							}
						}
						JOINT newVegas:Jowel
						{
							OFFSET 0.000000 -7.458206 6.864100
							CHANNELS 3 Xrotation Yrotation Zrotation
							End Site
							{
								OFFSET 0.000000 19.849884 0.000000
							}
						}
					}
				}
				JOINT newVegas:LeftShoulder
				{
					OFFSET 15.263000 10.923401 -0.547700
					CHANNELS 3 Xrotation Yrotation Zrotation
					JOINT newVegas:LeftArm
					{
						OFFSET 25.438599 -2.830597 -13.032500
						CHANNELS 3 Xrotation Yrotation Zrotation
						JOINT newVegas:LeftForeArm
						{
							OFFSET 29.960503 0.000000 0.000000
							CHANNELS 3 Xrotation Yrotation Zrotation
							JOINT newVegas:LeftHand
							{
								OFFSET 27.849251 0.000000 0.000000
								CHANNELS 3 Xrotation Yrotation Zrotation
								JOINT newVegas:LeftHandThumb1
								{
									OFFSET 4.487587 -3.305161 6.305391
									CHANNELS 3 Xrotation Yrotation Zrotation
									JOINT newVegas:LeftHandThumb2
									{
										OFFSET 5.480453 -3.164139 3.164143
										CHANNELS 3 Xrotation Yrotation Zrotation
										JOINT newVegas:LeftHandThumb3
										{
											OFFSET 5.159721 -2.978973 2.978967
											CHANNELS 3 Xrotation Yrotation Zrotation
											End Site
											{
												OFFSET 2.494507 5.926697 1.738678
											}
										}
									}
								}
								JOINT newVegas:LeftHandIndex1
								{
									OFFSET 18.578728 -0.527832 5.208049
									CHANNELS 3 Xrotation Yrotation Zrotation
									JOINT newVegas:LeftHandIndex2
									{
										OFFSET 3.192009 0.000000 0.000000
										CHANNELS 3 Xrotation Yrotation Zrotation
										JOINT newVegas:LeftHandIndex3
										{
											OFFSET 3.835129 0.000000 0.000000
											CHANNELS 3 Xrotation Yrotation Zrotation
											End Site
											{
												OFFSET -0.034599 3.816971 0.371180
											}
										}
									}
								}
								JOINT newVegas:LeftHandMiddle1
								{
									OFFSET 18.476105 0.000000 0.000000
									CHANNELS 3 Xrotation Yrotation Zrotation
									JOINT newVegas:LeftHandMiddle2
									{
										OFFSET 3.324875 0.000000 0.000000
										CHANNELS 3 Xrotation Yrotation Zrotation
										JOINT newVegas:LeftHandMiddle3
										{
											OFFSET 4.596550 0.000000 0.000000
											CHANNELS 3 Xrotation Yrotation Zrotation
											End Site
											{
												OFFSET 0.057701 4.578827 0.399218
											}
										}
									}
								}
								JOINT newVegas:LeftHandRing1
								{
									OFFSET 17.732719 0.121887 -4.201567
									CHANNELS 3 Xrotation Yrotation Zrotation
									JOINT newVegas:LeftHandRing2
									{
										OFFSET 2.733170 0.000000 0.000000
										CHANNELS 3 Xrotation Yrotation Zrotation
										JOINT newVegas:LeftHandRing3
										{
											OFFSET 3.178268 0.000000 0.000000
											CHANNELS 3 Xrotation Yrotation Zrotation
											End Site
											{
												OFFSET 0.119102 3.170624 0.185394
											}
										}
									}
								}
								JOINT newVegas:LeftHandPinky1
								{
									OFFSET 15.989624 -0.606689 -7.535461
									CHANNELS 3 Xrotation Yrotation Zrotation
									JOINT newVegas:LeftHandPinky2
									{
										OFFSET 2.538986 0.000000 0.000000
										CHANNELS 3 Xrotation Yrotation Zrotation
										JOINT newVegas:LeftHandPinky3
										{
											OFFSET 2.593102 0.000000 0.000000
											CHANNELS 3 Xrotation Yrotation Zrotation
											End Site
											{
												OFFSET -0.150902 2.584198 0.152708
											}
										}
									}
								}
							}
							JOINT newVegas:Left_Sleeve
							{
								OFFSET 0.267448 -0.649796 0.577675
								CHANNELS 3 Xrotation Yrotation Zrotation
								End Site
								{
									OFFSET 0.000000 15.991241 0.000000
								}
							}
							JOINT newVegas:Left_CapeC
							{
								OFFSET 15.715958 -8.608795 -6.935905
								CHANNELS 3 Xrotation Yrotation Zrotation
								JOINT newVegas:Left_CapeC1
								{
									OFFSET 0.000000 -8.688499 0.000000
									CHANNELS 3 Xrotation Yrotation Zrotation
									End Site
									{
										OFFSET 0.000000 8.688499 0.000000
									}
								}
							}
						}
						JOINT newVegas:Left_CapeB
						{
							OFFSET 26.118385 -8.608795 -7.079235
							CHANNELS 3 Xrotation Yrotation Zrotation
							JOINT newVegas:Left_CapeB1
							{
								OFFSET 0.000000 -8.688499 0.000000
								CHANNELS 3 Xrotation Yrotation Zrotation
								End Site
								{
									OFFSET 0.000000 8.688499 0.000000
								}
							}
						}
						JOINT newVegas:Left_CapeA
						{
							OFFSET 5.115639 -8.608795 -10.395809
							CHANNELS 3 Xrotation Yrotation Zrotation
							JOINT newVegas:Left_CapeA1
							{
								OFFSET 0.000000 -8.688499 0.000000
								CHANNELS 3 Xrotation Yrotation Zrotation
								End Site
								{
									OFFSET 0.000000 8.688499 0.000000
								}
							}
						}
					}
				}
				JOINT newVegas:RightShoulder
				{
					OFFSET -15.263000 10.923401 -0.547700
					CHANNELS 3 Xrotation Yrotation Zrotation
					JOINT newVegas:RightArm
					{
						OFFSET -25.438599 -2.830597 -13.032500
						CHANNELS 3 Xrotation Yrotation Zrotation
						JOINT newVegas:RightForeArm
						{
							OFFSET -29.960503 0.000000 0.000000
							CHANNELS 3 Xrotation Yrotation Zrotation
							JOINT newVegas:RightHand
							{
								OFFSET -27.849251 0.000000 0.000000
								CHANNELS 3 Xrotation Yrotation Zrotation
								JOINT newVegas:RightHandThumb1
								{
									OFFSET -4.487587 -3.305161 6.305391
									CHANNELS 3 Xrotation Yrotation Zrotation
									JOINT newVegas:RightHandThumb2
									{
										OFFSET -5.480453 -3.164139 3.164143
										CHANNELS 3 Xrotation Yrotation Zrotation
										JOINT newVegas:RightHandThumb3
										{
											OFFSET -5.159721 -2.978973 2.978967
											CHANNELS 3 Xrotation Yrotation Zrotation
											End Site
											{
												OFFSET -2.494507 5.926697 1.738678
											}
										}
									}
								}
								JOINT newVegas:RightHandIndex1
								{
									OFFSET -18.578728 -0.527832 5.208049
									CHANNELS 3 Xrotation Yrotation Zrotation
									JOINT newVegas:RightHandIndex2
									{
										OFFSET -3.192009 0.000000 0.000000
										CHANNELS 3 Xrotation Yrotation Zrotation
										JOINT newVegas:RightHandIndex3
										{
											OFFSET -3.835129 0.000000 0.000000
											CHANNELS 3 Xrotation Yrotation Zrotation
											End Site
											{
												OFFSET 0.034599 3.816971 0.371180
											}
										}
									}
								}
								JOINT newVegas:RightHandMiddle1
								{
									OFFSET -18.476105 0.000000 0.000000
									CHANNELS 3 Xrotation Yrotation Zrotation
									JOINT newVegas:RightHandMiddle2
									{
										OFFSET -3.324875 0.000000 0.000000
										CHANNELS 3 Xrotation Yrotation Zrotation
										JOINT newVegas:RightHandMiddle3
										{
											OFFSET -4.596550 0.000000 0.000000
											CHANNELS 3 Xrotation Yrotation Zrotation
											End Site
											{
												OFFSET -0.057701 4.578827 0.399218
											}
										}
									}
								}
								JOINT newVegas:RightHandRing1
								{
									OFFSET -17.732719 0.121887 -4.201567
									CHANNELS 3 Xrotation Yrotation Zrotation
									JOINT newVegas:RightHandRing2
									{
										OFFSET -2.733170 0.000000 0.000000
										CHANNELS 3 Xrotation Yrotation Zrotation
										JOINT newVegas:RightHandRing3
										{
											OFFSET -3.178268 0.000000 0.000000
											CHANNELS 3 Xrotation Yrotation Zrotation
											End Site
											{
												OFFSET -0.119102 3.170624 0.185394
											}
										}
									}
								}
								JOINT newVegas:RightHandPinky1
								{
									OFFSET -15.989624 -0.606689 -7.535461
									CHANNELS 3 Xrotation Yrotation Zrotation
									JOINT newVegas:RightHandPinky2
									{
										OFFSET -2.538986 0.000000 0.000000
										CHANNELS 3 Xrotation Yrotation Zrotation
										JOINT newVegas:RightHandPinky3
										{
											OFFSET -2.593102 0.000000 0.000000
											CHANNELS 3 Xrotation Yrotation Zrotation
											End Site
											{
												OFFSET 0.150902 2.584198 0.152708
											}
										}
									}
								}
							}
							JOINT newVegas:Right_CapeC
							{
								OFFSET -15.715958 -8.608795 -6.935905
								CHANNELS 3 Xrotation Yrotation Zrotation
								JOINT newVegas:Right_CapeC1
								{
									OFFSET 0.000000 -8.688499 0.000000
									CHANNELS 3 Xrotation Yrotation Zrotation
									End Site
									{
										OFFSET 0.000000 8.688499 0.000000
									}
								}
							}
							JOINT newVegas:Right_Sleeve
							{
								OFFSET -0.267448 -0.649994 0.577675
								CHANNELS 3 Xrotation Yrotation Zrotation
								End Site
								{
									OFFSET 0.000000 15.991302 0.000000
								}
							}
						}
						JOINT newVegas:Right_CapeA
						{
							OFFSET -5.115540 -8.608795 -10.395824
							CHANNELS 3 Xrotation Yrotation Zrotation
							JOINT newVegas:Right_CapeA1
							{
								OFFSET 0.000000 -8.688499 0.000000
								CHANNELS 3 Xrotation Yrotation Zrotation
								End Site
								{
									OFFSET 0.000000 8.688499 0.000000
								}
							}
						}
						JOINT newVegas:Right_CapeB
						{
							OFFSET -26.118187 -8.608795 -7.079266
							CHANNELS 3 Xrotation Yrotation Zrotation
							JOINT newVegas:Right_CapeB1
							{
								OFFSET 0.000000 -8.688499 0.000000
								CHANNELS 3 Xrotation Yrotation Zrotation
								End Site
								{
									OFFSET 0.000000 8.688499 0.000000
								}
							}
						}
					}
				}
				JOINT newVegas:Left_Collar
				{
					OFFSET 18.625099 8.655502 8.828100
					CHANNELS 3 Xrotation Yrotation Zrotation
					JOINT newVegas:Left_Collar1
					{
						OFFSET 14.783401 10.540405 -1.259500
						CHANNELS 3 Xrotation Yrotation Zrotation
						End Site
						{
							OFFSET 0.000000 18.199875 0.000000
						}
					}
				}
				JOINT newVegas:Collar_Back
				{
					OFFSET 0.000000 15.630707 -20.132601
					CHANNELS 3 Xrotation Yrotation Zrotation
					End Site
					{
						OFFSET 0.000000 22.523010 0.000000
					}
				}
				JOINT newVegas:Left_Peck
				{
					OFFSET 17.239599 -5.132599 25.482599
					CHANNELS 3 Xrotation Yrotation Zrotation
					End Site
					{
						OFFSET 0.000000 22.523010 0.000000
					}
				}
				JOINT newVegas:Right_Peck
				{
					OFFSET -17.239599 -5.132202 25.482599
					CHANNELS 3 Xrotation Yrotation Zrotation
					End Site
					{
						OFFSET 0.000000 22.523010 0.000000
					}
				}
				JOINT newVegas:Right_Collar
				{
					OFFSET -18.625099 8.655792 8.828100
					CHANNELS 3 Xrotation Yrotation Zrotation
					JOINT newVegas:Right_Collar1
					{
						OFFSET -14.783401 10.539993 -1.259500
						CHANNELS 3 Xrotation Yrotation Zrotation
						End Site
						{
							OFFSET 0.000000 18.199631 0.000000
						}
					}
				}
			}
		}
		JOINT newVegas:Belly
		{
			OFFSET 0.000000 -6.540398 9.014299
			CHANNELS 3 Xrotation Yrotation Zrotation
			End Site
			{
				OFFSET 0.000000 11.566666 0.000000
			}
		}
	}
	JOINT newVegas:ElvisFacialAnim_Joint
	{
		OFFSET 1.000000 -95.330101 -8.825800
		CHANNELS 3 Xrotation Yrotation Zrotation
		End Site
		{
			OFFSET 0.000000 35.315800 0.000000
		}
	}
}
MOTION
Frames: 4
Frame Time: 0.033333
-2.128596 32.361755 7.876002 5.156781 -9.586331 5.012666 0.000000 0.000000 -0.000000 -153.290373 -20.251260 6.718653 122.416756 1.956995 0.780100 30.142151 3.610792 -8.286644 -0.000000 -0.000000 0.000000 -0.000002 -0.000001 -0.000001 -86.746845 0.087949 -18.359205 146.776312 -2.524364 -2.870725 29.706993 -23.083635 -10.623987 -0.000001 -0.000001 -0.000000 0.000002 -0.000002 0.000002 20.670657 -12.378045 -4.768069 5.040325 -2.382903 -1.729128 5.454242 -4.547981 0.328097 1.926885 2.432143 -0.527450 1.926891 2.432155 -0.527451 -0.000001 0.000000 0.000001 1.926933 2.432154 -0.527453 1.926845 2.432151 -0.527447 -0.000001 -0.000000 0.000001 -0.000001 0.000000 -0.000000 3.271918 -13.946510 -1.973418 -35.636205 -8.423175 -32.266476 -0.000415 -97.350809 -0.000380 -149.102483 -27.134625 10.125802 9.873048 -5.863810 -9.427549 0.997803 0.731210 -1.434381 0.000003 -0.000001 -0.000001 -3.156952 0.551099 -39.712837 4.788077 5.754036 -79.514856 -0.000001 0.000001 0.000000 1.015383 5.899885 -50.379137 5.070863 5.798992 -82.324140 -0.000000 0.000000 -0.000000 2.566159 7.151506 -54.470953 5.460179 5.838027 -86.162795 -0.000001 -0.000004 -0.000004 4.135196 8.114465 -58.588673 4.970035 5.784575 -81.325020 0.000002 0.000000 -0.000000 -0.000000 0.000001 -0.000003 -0.000000 0.000001 -0.000003 -0.000001 0.000001 -0.000003 0.000000 0.000001 -0.000002 0.000001 -0.000000 -0.000003 0.000000 0.000001 -0.000002 -0.000001 0.000001 -0.000002 -0.146727 25.944853 1.009429 -24.700962 20.507235 46.628752 -0.000001 110.265939 0.000006 -37.776574 -20.993090 8.018533 20.470550 7.475596 18.843587 4.151736 -12.160923 -33.847993 0.000001 0.000002 0.000003 -0.887087 1.427993 12.684523 1.917397 -3.767482 53.934336 -0.000000 0.000001 -0.000000 0.770892 -5.199578 54.618827 5.563873 -4.568235 101.238594 0.000001 0.000002 -0.000001 6.934478 -8.544246 63.908769 2.909296 -4.317383 67.934742 0.000001 0.000002 -0.000000 8.373400 -8.171787 73.989930 2.173647 -3.940943 57.745377 0.000001 -0.000004 -0.000000 -0.000003 0.000001 -0.000000 -0.000005 0.000002 0.000001 -0.000003 0.000000 -0.000001 -0.000001 -0.000001 -0.000002 -0.000000 -0.000001 -0.000002 -0.000001 -0.000001 -0.000002 0.000000 -0.000001 -0.000000 0.000002 0.000000 -0.000001 0.000002 0.000000 -0.000001 0.000002 0.000000 -0.000001 0.000002 0.000000 -0.000001 0.000002 0.000000 -0.000001 0.000002 0.000000 -0.000001 0.000002 0.000000 -0.000001 0.000001 -0.000001 -0.000001 0.000000 0.000000 -0.000000 
-2.312408 32.457695 8.029168 5.567379 -9.335575 5.530423 -0.000000 0.000000 -0.000000 -152.986962 -19.111400 7.068877 121.830344 0.839226 0.628455 29.164689 1.594910 -8.584726 -0.000000 -0.000000 0.000000 0.000000 0.000001 0.000001 -85.688664 1.027958 -18.784835 146.252887 -1.715857 -2.761357 30.164711 -22.875902 -9.609964 0.000000 -0.000001 -0.000001 -0.000000 0.000000 -0.000001 22.262460 -11.777214 -4.543157 5.268417 -2.277866 -2.058737 5.932515 -4.434312 -0.078044 1.189230 2.496233 -0.469594 1.189222 2.496241 -0.469593 -0.000001 0.000000 -0.000000 1.189279 2.496232 -0.469595 1.189232 2.496261 -0.469599 0.000000 0.000000 0.000000 -0.000001 0.000000 0.000000 1.548398 -13.495181 -2.055729 -36.320511 -7.375990 -32.622370 0.000745 -98.001125 0.000754 -144.117743 -26.876110 14.425266 8.616953 -1.592353 -6.475546 5.643296 -0.086420 1.200460 0.000001 0.000001 -0.000006 -2.299513 1.052737 -36.427984 2.628714 4.886381 -56.537181 0.000001 0.000000 -0.000000 0.858069 5.695057 -48.391286 3.144843 5.189514 -62.409481 -0.000000 -0.000000 -0.000000 1.724052 6.538164 -53.665411 3.588068 5.397127 -67.211015 0.000002 -0.000001 0.000001 1.366867 6.478021 -59.703059 3.174414 5.204806 -62.735902 0.000000 -0.000003 -0.000000 0.000002 -0.000001 -0.000003 0.000002 -0.000001 -0.000003 0.000001 -0.000001 -0.000003 0.000002 -0.000001 -0.000001 0.000003 -0.000002 -0.000003 0.000002 -0.000001 -0.000001 0.000002 0.000000 -0.000001 -2.030417 24.472124 1.728002 -23.975540 21.328302 47.857472 -0.000088 111.629231 0.000080 -37.529437 -20.801664 6.573317 20.038667 6.867887 18.576279 4.754799 -12.646380 -33.351722 0.000000 -0.000001 -0.000004 -0.888495 1.438634 12.674125 1.860081 -3.725115 53.056834 -0.000002 0.000000 -0.000001 0.884958 -5.276567 54.493582 5.595020 -4.561950 101.630196 0.000001 0.000003 -0.000000 6.477598 -8.346709 63.593439 3.009335 -4.356492 69.257456 0.000000 -0.000001 -0.000000 7.829972 -8.049716 73.569655 2.245227 -3.985092 58.780471 0.000000 -0.000000 -0.000000 -0.000001 -0.000001 -0.000000 -0.000000 -0.000001 -0.000002 -0.000001 -0.000001 -0.000001 -0.000000 0.000001 -0.000000 0.000000 0.000001 0.000002 -0.000000 0.000001 -0.000000 0.000000 0.000001 0.000003 -0.000000 0.000000 -0.000000 -0.000000 0.000000 -0.000000 -0.000000 0.000000 -0.000000 -0.000000 0.000000 -0.000000 -0.000000 0.000000 -0.000000 -0.000000 0.000000 -0.000000 -0.000000 0.000000 -0.000000 -0.000001 0.000000 -0.000000 -0.000000 0.000000 -0.000000 
-2.479855 32.516884 8.528357 6.007606 -9.174773 6.049361 0.000000 0.000001 0.000000 -153.314975 -16.423834 7.660435 120.907134 -1.787271 0.249257 27.246612 -3.603408 -8.441332 -0.000000 -0.000000 -0.000000 -0.000001 -0.000000 0.000000 -83.487970 2.188844 -19.383276 145.784323 -0.317188 -2.574223 29.569535 -22.630587 -8.503726 -0.000001 -0.000002 0.000001 -0.000002 0.000000 0.000000 23.796222 -11.089305 -4.366785 5.496996 -2.180163 -2.417520 6.406475 -4.336280 -0.509796 0.403208 2.576678 -0.411072 0.403220 2.576666 -0.411036 -0.000001 0.000001 -0.000001 0.403182 2.576773 -0.411083 0.403186 2.576589 -0.411048 0.000000 0.000000 -0.000000 -0.000001 0.000001 -0.000001 -0.170904 -13.044305 -2.116476 -37.127003 -6.623065 -32.996473 -0.000920 -98.444350 -0.000895 -139.247435 -26.461155 18.478496 7.341454 2.401160 -3.390839 10.241124 -0.682036 3.694450 -0.000001 -0.000001 -0.000001 -1.544608 1.599581 -33.013613 1.019571 3.304175 -34.289510 -0.000001 -0.000001 0.000001 0.697205 5.465732 -46.239339 1.564683 3.986420 -42.847003 -0.000001 -0.000001 0.000003 0.915204 5.905752 -52.666387 1.982245 4.392767 -48.557785 0.000001 -0.000002 -0.000000 -1.367919 4.975140 -60.599262 1.668811 4.095553 -44.324574 0.000000 0.000002 0.000000 0.000001 0.000002 0.000005 0.000001 0.000002 0.000005 0.000000 0.000002 0.000005 -0.000003 0.000002 -0.000002 -0.000002 0.000002 -0.000003 -0.000003 0.000002 -0.000002 -0.000003 0.000002 -0.000002 -3.766444 23.056133 2.313836 -23.109923 22.060625 48.987739 -0.000112 113.240616 0.000115 -37.307385 -20.582273 5.178336 19.600538 6.267289 18.303850 5.371027 -13.114931 -32.839403 -0.000002 -0.000001 -0.000001 -0.889925 1.449277 12.663741 1.803396 -3.681899 52.179418 -0.000002 0.000001 0.000000 0.998659 -5.354075 54.368466 5.626129 -4.555445 102.021771 0.000001 -0.000000 0.000003 6.023029 -8.144503 63.280289 3.110263 -4.393279 70.580293 -0.000001 0.000002 -0.000000 7.288432 -7.920254 73.151237 2.317551 -4.027930 59.815662 0.000001 -0.000002 -0.000001 -0.000003 -0.000002 -0.000002 -0.000002 -0.000000 0.000003 -0.000003 -0.000001 -0.000000 0.000001 0.000000 0.000001 0.000002 0.000000 0.000001 0.000001 0.000000 0.000001 0.000002 -0.000000 0.000001 -0.000003 -0.000000 -0.000001 -0.000003 -0.000000 -0.000001 -0.000003 -0.000000 -0.000001 -0.000003 -0.000000 -0.000001 -0.000003 -0.000000 -0.000001 -0.000003 -0.000000 -0.000001 -0.000003 -0.000000 -0.000001 -0.000001 0.000000 0.000000 0.000000 0.000001 0.000000 
-2.700896 32.573723 9.019451 6.441197 -9.055215 6.570544 -0.000000 -0.000000 0.000000 -153.576967 -13.854831 8.303978 120.015959 -4.075891 -0.053284 25.478252 -7.687803 -8.278932 -0.000000 0.000000 0.000000 -0.000002 0.000000 -0.000000 -81.391587 3.096914 -20.033247 145.255106 0.859104 -2.426232 29.008421 -22.424297 -7.557359 0.000000 0.000000 -0.000001 0.000001 0.000000 -0.000000 25.367420 -10.358667 -4.216254 5.727848 -2.075104 -2.747049 6.889184 -4.222303 -0.915704 -0.335074 2.665960 -0.359014 -0.335072 2.665962 -0.359016 -0.000000 -0.000000 0.000000 -0.334965 2.665959 -0.359020 -0.335081 2.665973 -0.359016 -0.000002 0.000000 -0.000001 -0.000000 -0.000000 0.000000 -1.886343 -12.594725 -2.155890 -38.827979 -7.875846 -33.700857 -0.000641 -97.574614 -0.000648 -134.697450 -28.048747 21.408291 6.223954 5.613390 -0.644758 14.142026 -1.038382 5.716315 -0.000000 -0.000003 -0.000005 -0.989172 2.152558 -30.464382 0.481758 2.328411 -23.376995 0.000000 0.000000 -0.000001 0.577679 5.288364 -44.749046 0.902290 3.125523 -32.198386 0.000002 -0.000001 0.000002 0.278579 5.391665 -52.144816 1.279062 3.655151 -38.562729 -0.000001 -0.000000 -0.000002 -3.654970 3.846052 -61.687052 0.976966 3.240891 -33.543093 0.000001 -0.000002 0.000004 0.000002 0.000002 0.000001 0.000002 0.000002 0.000001 0.000001 0.000002 0.000001 -0.000002 0.000002 -0.000000 -0.000001 0.000002 -0.000003 -0.000002 0.000002 -0.000000 -0.000002 0.000002 -0.000001 -5.555314 21.541295 2.835846 -22.452746 22.934256 50.200552 0.000073 114.711552 -0.000063 -37.087695 -20.437181 3.724660 19.156140 5.673924 18.026302 6.000205 -13.566097 -32.311296 -0.000000 0.000001 -0.000000 -0.891316 1.459919 12.653332 1.747387 -3.637824 51.302053 -0.000001 0.000002 -0.000001 1.112041 -5.432112 54.243460 5.657225 -4.548739 102.413366 0.000001 0.000001 -0.000001 5.570837 -7.937659 62.969303 3.211984 -4.427722 71.903232 -0.000002 0.000002 0.000000 6.748928 -7.783375 72.734719 2.390644 -4.069467 60.850920 0.000000 -0.000000 0.000001 -0.000001 0.000000 0.000000 -0.000001 0.000001 0.000001 -0.000003 0.000001 -0.000000 -0.000000 0.000001 -0.000001 -0.000000 0.000001 -0.000001 -0.000000 0.000001 -0.000001 -0.000000 0.000001 -0.000001 0.000001 0.000001 -0.000000 0.000001 0.000001 -0.000000 0.000001 0.000001 -0.000000 0.000001 0.000001 -0.000000 0.000001 0.000001 -0.000000 0.000001 0.000001 -0.000000 0.000001 0.000001 -0.000000 -0.000001 0.000000 -0.000000 -0.000000 -0.000000 0.000000 
